<mxfile host="app.diagrams.net" modified="2023-07-14T13:19:30.927Z" agent="Mozilla/5.0 (Windows NT 10.0; Win64; x64) AppleWebKit/537.36 (KHTML, like Gecko) Chrome/114.0.0.0 Safari/537.36" version="21.6.2" etag="D-wcxU7Q-uy2T1tTPaUO" type="github">
  <diagram name="Page-1" id="eCcKre1G6QodB0rfUpHp">
    <mxGraphModel>
      <root>
        <mxCell id="0" />
        <mxCell id="1" parent="0" />
      </root>
    </mxGraphModel>
  </diagram>
</mxfile>
